# xmcd
#
# Track frame offsets:
#	150
#	13215
#	30630
#	44127
#	61285
#	75032
#	84867
#	98822
#	114907
#	127890
#	141710
#	154117
#	167175
#	181477
#	194215
#	209815
#	223787
#	236770
#	250157
#	260650
#	274665
#
# Disc length: 3838 seconds
#
# Revision: 1
# Processed by: cddbd v1.5.1PL0 Copyright (c) Steve Scherf et al.
# Submitted via: audiograbber 1.83.01
#
DISCID=390efc15
DTITLE=Gegrorio Barrios - Amor Vol1
DYEAR=1900
DGENRE=Bolero
TTITLE0=Dos Almas
TTITLE1=Cabellos Blancos
TTITLE2=Soñando contigo
TTITLE3=Amor
TTITLE4=Fueron tres años
TTITLE5=Mira que luna
TTITLE6=Final
TTITLE7=Oracion Caribe
TTITLE8=Que sera de ti?
TTITLE9=Hoy
TTITLE10=Se muy bien que vendras
TTITLE11=La barca
TTITLE12=Juguete
TTITLE13=Palida cancion
TTITLE14=Esperame en el cielo
TTITLE15=Lagrimas de sangre
TTITLE16=Al Di La
TTITLE17=Desesperadamente
TTITLE18=Quiero besar tus manos
TTITLE19=Regalame esta noche
TTITLE20=Venganza
EXTD=
EXTT0=
EXTT1=
EXTT2=
EXTT3=
EXTT4=
EXTT5=
EXTT6=
EXTT7=
EXTT8=
EXTT9=
EXTT10=
EXTT11=
EXTT12=
EXTT13=
EXTT14=
EXTT15=
EXTT16=
EXTT17=
EXTT18=
EXTT19=
EXTT20=
PLAYORDER=
